<svg xmlns="http://www.w3.org/2000/svg" width="960" height="620" viewBox="0 0 960 620" role="img" aria-label="Hotel illustration">
  <defs>
    <linearGradient id="sky" x1="0" y1="0" x2="0" y2="1">
      <stop offset="0%" stop-color="#dbeafe" />
      <stop offset="100%" stop-color="#eff6ff" />
    </linearGradient>
    <linearGradient id="hotel" x1="0" y1="0" x2="1" y2="1">
      <stop offset="0%" stop-color="#0f172a" />
      <stop offset="100%" stop-color="#1e293b" />
    </linearGradient>
  </defs>

  <rect width="960" height="620" fill="url(#sky)" />
  <circle cx="780" cy="120" r="48" fill="#fbbf24" opacity="0.9" />

  <rect x="140" y="170" width="680" height="360" rx="16" fill="url(#hotel)" />
  <rect x="190" y="220" width="120" height="80" rx="8" fill="#93c5fd" />
  <rect x="340" y="220" width="120" height="80" rx="8" fill="#93c5fd" />
  <rect x="500" y="220" width="120" height="80" rx="8" fill="#93c5fd" />
  <rect x="650" y="220" width="120" height="80" rx="8" fill="#93c5fd" />

  <rect x="250" y="330" width="90" height="80" rx="8" fill="#93c5fd" />
  <rect x="370" y="330" width="90" height="80" rx="8" fill="#93c5fd" />
  <rect x="490" y="330" width="90" height="80" rx="8" fill="#93c5fd" />
  <rect x="610" y="330" width="90" height="80" rx="8" fill="#93c5fd" />

  <rect x="420" y="420" width="120" height="110" rx="8" fill="#334155" />
  <rect x="0" y="530" width="960" height="90" fill="#86efac" />

  <text x="480" y="145" text-anchor="middle" font-family="Segoe UI, Arial, sans-serif" font-size="34" fill="#1e293b" font-weight="700">
    HOTEL BOOKING
  </text>
</svg>
